<svg xmlns="http://www.w3.org/2000/svg" width="32" height="32" fill="none"><path fill="#009FE3" d="M17 5.77c.539.922 1.154 1.768 1.154 2 0-.232.538-1.078 1.077-2 .538-.924.538-1.77.538-1.77 0-1.154-.769-2.077-1.615-2.077-.923 0-1.615.923-1.615 2.154-.077-.077-.154.846.461 1.692z"/><path fill="url(#paint0_linear)" d="M6.23 0C5 3.77 9.616 5.77 14.924 10.385c3.77 3.307 3.308 8.384 2.693 11.23 2.307-7.153 2-16.23-11.385-21.615z"/><path fill="url(#paint1_linear)" d="M24.308 1.077s-7 6.308-5.231 11.692c0 0 .308-1.077 1.615-2.461C22.077 8.923 26.77 4 24.308 1.077z"/><path fill="url(#paint2_linear)" d="M16.385 13.615c.153 2.385-1.154 4.923-3.308 9.231-3.539 7.23-1.308 9.077-1.308 9.077S15.154 27.769 17 23c.385-.692 1.538-5.462-.615-9.385z"/><defs><linearGradient id="paint0_linear" x1="8.886" x2="19.947" y1="-.522" y2="23.374" gradientUnits="userSpaceOnUse"><stop stop-color="#00B7ED"/><stop offset=".058" stop-color="#00B7ED"/><stop offset=".405" stop-color="#009FE3"/><stop offset="1" stop-color="#005E9A"/></linearGradient><linearGradient id="paint1_linear" x1="24.468" x2="18.67" y1="1.489" y2="13.057" gradientUnits="userSpaceOnUse"><stop stop-color="#009FE3"/><stop offset=".403" stop-color="#009FE3"/><stop offset="1" stop-color="#0073BD"/></linearGradient><linearGradient id="paint2_linear" x1="11.181" x2="18.839" y1="32.376" y2="13.01" gradientUnits="userSpaceOnUse"><stop stop-color="#00B7ED"/><stop offset=".058" stop-color="#00B7ED"/><stop offset=".405" stop-color="#009FE3"/><stop offset="1" stop-color="#005E9A"/></linearGradient></defs></svg>